<svg xmlns="http://www.w3.org/2000/svg" viewBox="0 0 720 520" role="img" aria-labelledby="title desc">
<title id="title">Petals three-source torus navigation overlay</title><desc id="desc">A read-only SVG torus with links to the three online corpus sources.</desc>
<defs><linearGradient id="flow" x1="0" x2="1"><stop stop-color="#70efff"/><stop offset=".5" stop-color="#ff6fcf"/><stop offset="1" stop-color="#70efff"/></linearGradient><marker id="arrow" markerWidth="9" markerHeight="9" refX="8" refY="4.5" orient="auto"><path d="M0 0L9 4.5L0 9Z" fill="#70efff"/></marker></defs><rect width="720" height="520" rx="20" fill="#070b16"/>
<ellipse cx="360" cy="260" rx="260" ry="175" fill="none" stroke="#254b65" stroke-width="2" stroke-dasharray="5 7"/><ellipse cx="360" cy="260" rx="145" ry="92" fill="none" stroke="#ff6fcf" stroke-width="2"/><path d="M360 85 A175 260 0 1 1 359.9 85" fill="none" stroke="url(#flow)" stroke-width="4" stroke-linecap="round" stroke-dasharray="2 20" marker-end="url(#arrow)"/><path d="M360 260L360 85M360 260L135 390M360 260L585 390" stroke="#41647d" stroke-width="1" stroke-dasharray="3 6"/>
<g fill="#70efff" stroke="#fff" stroke-width="2"><a href="https://0root.ai/"><circle cx="360" cy="85" r="12"/></a><a href="https://github.com/DavidWise01"><circle cx="135" cy="390" r="12"/></a><a href="https://github.com/rgiskard01-fiddler"><circle cx="585" cy="390" r="12"/></a></g><g fill="#e8faff" font-family="ui-monospace,monospace" font-size="16" text-anchor="middle"><a href="https://0root.ai/"><text x="360" y="52">0root.ai</text></a><a href="https://github.com/DavidWise01"><text x="135" y="430">DavidWise01</text></a><a href="https://github.com/rgiskard01-fiddler"><text x="585" y="430">rgiskard01-fiddler</text></a></g><g fill="#a9bfd0" font-family="ui-monospace,monospace" font-size="12" text-anchor="middle"><text x="360" y="250">POSI · OBSERVATION_READY</text><text x="360" y="270">L3 INVERSE · 120° TRIAD</text><text x="360" y="290">READ-ONLY NAVIGATION</text></g><text x="360" y="485" fill="#70efff" font-family="ui-monospace,monospace" font-size="12" text-anchor="middle">R = 3 / 120 = 0.025 · CLICK A NODE TO OPEN SOURCE</text></svg>